<?xml version="1.0" standalone="no"?><!DOCTYPE svg PUBLIC "-//W3C//DTD SVG 1.1//EN" "http://www.w3.org/Graphics/SVG/1.1/DTD/svg11.dtd"><svg t="1598497271967" class="icon" viewBox="0 0 1027 1024" version="1.1" xmlns="http://www.w3.org/2000/svg" p-id="4284" xmlns:xlink="http://www.w3.org/1999/xlink" width="200.5859375" height="200"><defs><style type="text/css"></style></defs><path d="M513.745738 2.593668C231.734243 2.593668 2.992694 231.23546 2.992694 513.346712c0 107.836727 33.418412 207.792694 90.479103 290.191525 20.54983 29.727423 44.192109 57.160448 70.428057 81.900048v-273.332683c0-40.999903 14.863712-80.603215 41.797954-111.527716 33.019386-37.907453 61.549732-79.505894 85.092255-123.997272l58.756552-161.505699c9.377107-25.936678 37.508427-39.004774 62.946322-30.724988 2.394155 0.798052 4.688553 1.69586 6.982952 2.892937 41.199415 20.649586 57.160448 71.325865 35.114272 111.727229l-39.4038 72.323429c-2.892937 5.287092-5.087579 10.873453-6.683682 16.459815-10.075402 35.712811 5.885631 74.81734 40.401364 92.474232 33.318656 16.958597 72.123916 19.352752 107.337944 6.683683 48.581393-17.557136 74.318558-70.727326 57.858744-119.707745l-33.917195-100.853775c-8.180029-24.440331 2.892937-51.175061 25.936678-62.647053 38.306478-19.153239 84.792986 0.498782 97.661569 41.398928l24.7396 78.50833c19.951291 63.345348 49.578958 123.398734 88.883001 176.967949l1.496347 2.094886c29.128885 40.999903 44.790648 89.980321 44.790647 140.257574v242.408183c27.931807-26.335704 52.970677-55.664101 74.418315-87.685923 54.56678-81.30151 86.488846-179.162591 86.488846-284.40565C1024.498782 231.23546 795.85699 2.593668 513.745738 2.593668z" fill="#FF3F3F" p-id="4285"></path><path d="M400.222893 496.986654c24.939113 30.724988 62.946322 50.277253 105.642085 50.277252S586.567949 527.611885 611.507063 496.986654c-29.428154 19.252996-66.038773 30.724988-105.642085 30.724988s-76.213931-11.471992-105.642085-30.724988z" fill="#FF3F3F" p-id="4286"></path><path d="M818.900731 502.672772l-1.496347-2.094886c-39.304043-53.569216-68.93171-113.622601-88.883001-176.967949l-24.7396-78.50833c-12.868583-40.900146-59.255334-60.552168-97.661569-41.398928-23.043741 11.471992-34.116707 38.206722-25.936678 62.647053l33.817438 100.853775c16.360058 48.980419-9.27735 102.150609-57.858743 119.707745-35.114272 12.66907-74.019289 10.274915-107.337945-6.683683-34.515733-17.557136-50.576522-56.761422-40.401363-92.474232-0.099756-37.907453 7.182465-85.79055 17.856405-116.216269 9.57662-27.333268-1.795616-61.948758-13.766391-87.187141-25.338139-8.279786-53.469459 4.78831-62.946322 30.724988l-58.756552 161.505699c-23.442767 44.491378-52.072869 86.08982-85.092255 123.997272-26.934243 30.924501-41.797954 70.527813-41.797954 111.527716v273.232927c80.303945 75.515636 184.948466 125.294106 300.965221 136.367073 16.060789 1.496347 32.420848 2.294398 48.880663 2.294398 16.260302 0 32.321091-0.798052 48.182367-2.294398 116.316025-10.873453 221.160058-60.75168 301.663517-136.367073v-242.408183c0-50.277253-15.562007-99.257672-44.690891-140.257574z m-313.035753 44.591134c-42.596006 0-80.702971-19.652021-105.642085-50.277252 29.428154 19.252996 66.038773 30.724988 105.642085 30.724988s76.114174-11.372236 105.642085-30.724988c-25.03887 30.724988-63.046079 50.277253-105.642085 50.277252z" fill="#FFFFFF" p-id="4287"></path><path d="M426.159571 271.537068c-10.673941 30.525475-17.956162 78.308816-17.856405 116.216269 1.596103-5.586361 3.790745-11.072966 6.683683-16.459815l39.403799-72.323429c22.046176-40.50112 6.1849-91.177399-35.114272-111.727229-2.294398-1.097321-4.588797-2.094886-6.982952-2.892937 12.070531 25.338139 23.442767 59.853872 13.866147 87.187141z" fill="#FFFFFF" p-id="4288"></path><path d="M251.386264 818.900731l11.771262-13.866147c9.177594 9.177594 21.647151 15.063225 34.01695 15.063224 15.46225 0 24.141062-7.282221 24.141062-18.055918 0-11.571749-8.678811-15.262737-20.450073-20.450073l-17.656892-7.581491c-12.270044-5.187336-26.036434-14.863712-26.036435-33.418412 0-20.150804 17.656892-35.214028 41.997467-35.214028 14.863712 0 28.929372 6.284657 38.605748 16.160546L327.201169 734.407014c-7.980516-7.082708-16.858841-11.471992-28.031564-11.471992-12.968339 0-21.447638 6.284657-21.447637 16.459815 0 10.873453 10.274915 15.063225 20.649586 19.252995l17.557136 7.481734c15.063225 6.384413 26.036434 15.76152 26.036434 34.515734 0 20.450073-16.958597 37.109401-44.890404 37.1094-17.756649-0.099756-34.016951-7.082708-45.688456-18.853969zM387.952849 724.630882h-37.40867v-16.858841h95.167657v16.858841h-37.608183v110.729664h-20.150804v-110.729664zM455.986751 771.117389c0-41.099659 22.744472-65.739503 55.464589-65.739503s55.664101 24.639844 55.664101 65.739503-22.844228 66.537555-55.664101 66.537555-55.464588-25.437896-55.464589-66.537555z m90.479104 0c0-30.026693-13.866147-48.182367-35.014515-48.182367-21.148368 0-34.815002 18.155675-34.815003 48.182367s13.666634 49.080175 34.815003 49.080176c21.148368-0.099756 35.014515-19.153239 35.014515-49.080176zM663.280662 835.360546l-28.929371-51.474331h-20.649586v51.474331H593.550901V707.772041h41.797954c26.335704 0 46.087482 9.377107 46.087482 36.909888 0 19.751778-10.574184 31.523039-26.73473 36.610618l31.22377 54.067999h-22.644715z m-49.578957-67.53512h19.252995c18.5547 0 28.630102-7.581491 28.630103-23.043741 0-15.46225-10.075402-20.849099-28.630103-20.849099h-19.252995v43.89284zM707.173502 707.772041h75.415879v16.858841H727.224549V760.144179h46.785777v16.958597H727.224549v41.299172h57.160449v16.958598h-77.311252V707.772041zM400.32265 246.897224l-13.068096 9.776132c-4.289528 3.291963-7.182465 8.080273-7.980516 13.467121l-11.571749 82.099562c-0.199513 1.596103 1.795616 2.394155 2.693425 1.097321l58.357525-77.909791c4.588797-6.085144 5.386849-14.265173 1.995129-21.148368-5.486605-11.571749-20.150804-15.063225-30.425718-7.381977zM648.117681 246.797467l13.068096 9.776133c4.289528 3.291963 7.182465 8.080273 7.980516 13.467121l11.571749 82.099562c0.199513 1.596103-1.795616 2.394155-2.693424 1.097321L619.587336 275.327813c-4.588797-6.085144-5.386849-14.265173-1.995129-21.148368 5.586361-11.571749 20.25056-15.063225 30.525474-7.381978z" fill="#FF3F3F" p-id="4289"></path></svg>
